<svg width="116" height="15" viewBox="0 0 116 15" fill="none" xmlns="http://www.w3.org/2000/svg">
<path d="M12.16 0.759987V14.8H8.74001V9.01999H3.42001V14.8H9.81987e-06V0.759987H3.42001V6.25999H8.74001V0.759987H12.16ZM25.1489 9.03999C25.1489 9.35999 25.1289 9.69332 25.0889 10.04H17.3489C17.4022 10.7333 17.6222 11.2667 18.0089 11.64C18.4089 12 18.8956 12.18 19.4689 12.18C20.3222 12.18 20.9156 11.82 21.2489 11.1H24.8889C24.7023 11.8333 24.3623 12.4933 23.8689 13.08C23.3889 13.6667 22.7823 14.1267 22.0489 14.46C21.3156 14.7933 20.4956 14.96 19.5889 14.96C18.4956 14.96 17.5222 14.7267 16.6689 14.26C15.8156 13.7933 15.1489 13.1267 14.6689 12.26C14.1889 11.3933 13.9489 10.38 13.9489 9.21999C13.9489 8.05999 14.1822 7.04665 14.6489 6.17999C15.1289 5.31332 15.7956 4.64665 16.6489 4.17999C17.5022 3.71332 18.4822 3.47999 19.5889 3.47999C20.6689 3.47999 21.6289 3.70665 22.4689 4.15999C23.3089 4.61332 23.9622 5.25999 24.4289 6.09999C24.9089 6.93999 25.1489 7.91999 25.1489 9.03999ZM21.6489 8.13999C21.6489 7.55332 21.4489 7.08665 21.0489 6.73999C20.6489 6.39332 20.1489 6.21999 19.5489 6.21999C18.9756 6.21999 18.4889 6.38665 18.0889 6.71999C17.7022 7.05332 17.4622 7.52665 17.3689 8.13999H21.6489ZM30.3731 -1.23978e-05V14.8H26.9531V-1.23978e-05H30.3731ZM36.2716 -1.23978e-05V14.8H32.8516V-1.23978e-05H36.2716ZM43.83 14.96C42.7367 14.96 41.75 14.7267 40.87 14.26C40.0033 13.7933 39.3167 13.1267 38.81 12.26C38.3167 11.3933 38.07 10.38 38.07 9.21999C38.07 8.07332 38.3233 7.06665 38.83 6.19999C39.3367 5.31999 40.03 4.64665 40.91 4.17999C41.79 3.71332 42.7767 3.47999 43.87 3.47999C44.9633 3.47999 45.95 3.71332 46.83 4.17999C47.71 4.64665 48.4033 5.31999 48.91 6.19999C49.4167 7.06665 49.67 8.07332 49.67 9.21999C49.67 10.3667 49.41 11.38 48.89 12.26C48.3833 13.1267 47.6833 13.7933 46.79 14.26C45.91 14.7267 44.9233 14.96 43.83 14.96ZM43.83 12C44.4833 12 45.0367 11.76 45.49 11.28C45.9567 10.8 46.19 10.1133 46.19 9.21999C46.19 8.32665 45.9633 7.63999 45.51 7.15999C45.07 6.67999 44.5233 6.43999 43.87 6.43999C43.2033 6.43999 42.65 6.67999 42.21 7.15999C41.77 7.62665 41.55 8.31332 41.55 9.21999C41.55 10.1133 41.7633 10.8 42.19 11.28C42.63 11.76 43.1767 12 43.83 12ZM75.0427 0.759987L71.3827 14.8H67.2427L65.0027 5.55999L62.6827 14.8H58.5427L54.9827 0.759987H58.6427L60.6627 10.98L63.1627 0.759987H66.9227L69.3227 10.98L71.3627 0.759987H75.0427ZM81.8378 14.96C80.7445 14.96 79.7578 14.7267 78.8778 14.26C78.0112 13.7933 77.3245 13.1267 76.8178 12.26C76.3245 11.3933 76.0778 10.38 76.0778 9.21999C76.0778 8.07332 76.3312 7.06665 76.8378 6.19999C77.3445 5.31999 78.0378 4.64665 78.9178 4.17999C79.7978 3.71332 80.7845 3.47999 81.8778 3.47999C82.9712 3.47999 83.9578 3.71332 84.8378 4.17999C85.7178 4.64665 86.4112 5.31999 86.9178 6.19999C87.4245 7.06665 87.6778 8.07332 87.6778 9.21999C87.6778 10.3667 87.4178 11.38 86.8978 12.26C86.3912 13.1267 85.6912 13.7933 84.7978 14.26C83.9178 14.7267 82.9312 14.96 81.8378 14.96ZM81.8378 12C82.4912 12 83.0445 11.76 83.4978 11.28C83.9645 10.8 84.1978 10.1133 84.1978 9.21999C84.1978 8.32665 83.9712 7.63999 83.5178 7.15999C83.0778 6.67999 82.5312 6.43999 81.8778 6.43999C81.2112 6.43999 80.6578 6.67999 80.2178 7.15999C79.7778 7.62665 79.5578 8.31332 79.5578 9.21999C79.5578 10.1133 79.7712 10.8 80.1978 11.28C80.6378 11.76 81.1845 12 81.8378 12ZM92.9122 5.49999C93.3122 4.88665 93.8122 4.40665 94.4122 4.05999C95.0122 3.69999 95.6789 3.51999 96.4122 3.51999V7.13999H95.4722C94.6189 7.13999 93.9789 7.32665 93.5522 7.69999C93.1255 8.05999 92.9122 8.69999 92.9122 9.61999V14.8H89.4922V3.63999H92.9122V5.49999ZM101.467 -1.23978e-05V14.8H98.0469V-1.23978e-05H101.467ZM103.265 9.19999C103.265 8.05332 103.479 7.04665 103.905 6.17999C104.345 5.31332 104.939 4.64665 105.685 4.17999C106.432 3.71332 107.265 3.47999 108.185 3.47999C108.919 3.47999 109.585 3.63332 110.185 3.93999C110.799 4.24665 111.279 4.65999 111.625 5.17999V-1.23978e-05H115.045V14.8H111.625V13.2C111.305 13.7333 110.845 14.16 110.245 14.48C109.659 14.8 108.972 14.96 108.185 14.96C107.265 14.96 106.432 14.7267 105.685 14.26C104.939 13.78 104.345 13.1067 103.905 12.24C103.479 11.36 103.265 10.3467 103.265 9.19999ZM111.625 9.21999C111.625 8.36665 111.385 7.69332 110.905 7.19999C110.439 6.70665 109.865 6.45999 109.185 6.45999C108.505 6.45999 107.925 6.70665 107.445 7.19999C106.979 7.67999 106.745 8.34665 106.745 9.19999C106.745 10.0533 106.979 10.7333 107.445 11.24C107.925 11.7333 108.505 11.98 109.185 11.98C109.865 11.98 110.439 11.7333 110.905 11.24C111.385 10.7467 111.625 10.0733 111.625 9.21999Z" fill="black"/>
</svg>